<?xml version="1.0" encoding="UTF-8"?>
<svg width="128" height="128" viewBox="0 0 128 128" xmlns="http://www.w3.org/2000/svg">
  <defs>
    <linearGradient id="grad1" x1="0%" y1="0%" x2="100%" y2="100%">
      <stop offset="0%" style="stop-color:#2196F3;stop-opacity:1" />
      <stop offset="100%" style="stop-color:#1976D2;stop-opacity:1" />
    </linearGradient>
  </defs>
  
  <!-- Background circle -->
  <circle cx="64" cy="64" r="60" fill="url(#grad1)" stroke="#0D47A1" stroke-width="2"/>
  
  <!-- Document icon -->
  <rect x="30" y="25" width="50" height="65" fill="white" stroke="#0D47A1" stroke-width="2" rx="3"/>
  <rect x="35" y="30" width="40" height="2" fill="#2196F3"/>
  <rect x="35" y="35" width="35" height="2" fill="#42A5F5"/>
  <rect x="35" y="40" width="30" height="2" fill="#42A5F5"/>
  <rect x="35" y="45" width="38" height="2" fill="#42A5F5"/>
  <rect x="35" y="50" width="25" height="2" fill="#42A5F5"/>
  <rect x="35" y="55" width="32" height="2" fill="#42A5F5"/>
  <rect x="35" y="60" width="28" height="2" fill="#42A5F5"/>
  <rect x="35" y="65" width="35" height="2" fill="#42A5F5"/>
  <rect x="35" y="70" width="20" height="2" fill="#42A5F5"/>
  <rect x="35" y="75" width="30" height="2" fill="#42A5F5"/>
  <rect x="35" y="80" width="25" height="2" fill="#42A5F5"/>
  
  <!-- "EVTX" text -->
  <text x="64" y="108" text-anchor="middle" fill="white" font-family="Arial, sans-serif" font-size="14" font-weight="bold">EVTX</text>
</svg>